<svg xmlns="http://www.w3.org/2000/svg" xmlns:xlink="http://www.w3.org/1999/xlink" viewBox="0 0 512 512" width="512" height="512" style="width: 100%; height: 100%; transform: translate3d(0,0,0); content-visibility: visible;" preserveAspectRatio="xMidYMid meet"><defs><clipPath id="__lottie_element_2"><rect width="512" height="512" x="0" y="0"></rect></clipPath><clipPath id="__lottie_element_4"><path d="M0,0 L100,0 L100,100 L0,100z"></path></clipPath></defs><g clip-path="url(#__lottie_element_2)"><g clip-path="url(#__lottie_element_4)" style="display: block;" transform="matrix(5.119999885559082,0,0,5.119999885559082,0,0)" opacity="1"><g style="display: block;" transform="matrix(1.333299994468689,0,0,1.333299994468689,0,0)" opacity="1"><g opacity="1" transform="matrix(1,0,0,1,0,0)"><g opacity="1" transform="matrix(1,0,0,1,0,0)"><path fill="rgb(30,40,51)" fill-opacity="1" d=" M47.31999969482422,5.619999885559082 C47.31999969482422,5.619999885559082 27.68000030517578,5.619999885559082 27.68000030517578,5.619999885559082 C15.5,5.619999885559082 5.619999885559082,15.5 5.619999885559082,27.68000030517578 C5.619999885559082,27.68000030517578 5.619999885559082,47.31999969482422 5.619999885559082,47.31999969482422 C5.619999885559082,59.5 15.5,69.37999725341797 27.68000030517578,69.37999725341797 C27.68000030517578,69.37999725341797 47.31999969482422,69.37999725341797 47.31999969482422,69.37999725341797 C59.5,69.37999725341797 69.37999725341797,59.5 69.37999725341797,47.31999969482422 C69.37999725341797,47.31999969482422 69.37999725341797,27.68000030517578 69.37999725341797,27.68000030517578 C69.37999725341797,15.5 59.5,5.619999885559082 47.31999969482422,5.619999885559082 C47.31999969482422,5.619999885559082 47.31999969482422,5.619999885559082 47.31999969482422,5.619999885559082z"></path></g><g opacity="1" transform="matrix(1,0,0,1,0,0)"><path fill="rgb(255,255,255)" fill-opacity="1" d=" M36.349998474121094,32.79999923706055 C36.349998474121094,32.79999923706055 21.1299991607666,25.940000534057617 21.1299991607666,25.940000534057617 C20.020000457763672,25.450000762939453 20.389999389648438,23.790000915527344 21.600000381469727,23.790000915527344 C21.600000381469727,23.790000915527344 53.41999816894531,23.790000915527344 53.41999816894531,23.790000915527344 C54.630001068115234,23.790000915527344 54.9900016784668,25.440000534057617 53.880001068115234,25.940000534057617 C53.880001068115234,25.940000534057617 38.66999816894531,32.79999923706055 38.66999816894531,32.79999923706055 C37.939998626708984,33.130001068115234 37.09000015258789,33.130001068115234 36.36000061035156,32.79999923706055 C36.36000061035156,32.79999923706055 36.349998474121094,32.79999923706055 36.349998474121094,32.79999923706055z M56.81999969482422,30.06999969482422 C57.43000030517578,29.1200008392334 56.43000030517578,27.979999542236328 55.400001525878906,28.440000534057617 C55.400001525878906,28.440000534057617 40.72999954223633,35.13999938964844 40.72999954223633,35.13999938964844 C39.72999954223633,35.599998474121094 39.09000015258789,36.61000061035156 39.09000015258789,37.70000076293945 C39.09000015258789,37.70000076293945 39.09000015258789,53.810001373291016 39.09000015258789,53.810001373291016 C39.09000015258789,54.93000030517578 40.54999923706055,55.36000061035156 41.15999984741211,54.41999816894531 C41.15999984741211,54.41999816894531 56.810001373291016,30.06999969482422 56.810001373291016,30.06999969482422 C56.810001373291016,30.06999969482422 56.81999969482422,30.06999969482422 56.81999969482422,30.06999969482422z M19.600000381469727,28.440000534057617 C18.579999923706055,27.979999542236328 17.56999969482422,29.1200008392334 18.18000030517578,30.06999969482422 C18.18000030517578,30.06999969482422 33.84000015258789,54.43000030517578 33.84000015258789,54.43000030517578 C34.45000076293945,55.380001068115234 35.90999984741211,54.939998626708984 35.90999984741211,53.81999969482422 C35.90999984741211,53.81999969482422 35.90999984741211,37.70000076293945 35.90999984741211,37.70000076293945 C35.90999984741211,36.599998474121094 35.27000045776367,35.599998474121094 34.27000045776367,35.13999938964844 C34.27000045776367,35.13999938964844 19.59000015258789,28.450000762939453 19.59000015258789,28.450000762939453 C19.59000015258789,28.450000762939453 19.600000381469727,28.440000534057617 19.600000381469727,28.440000534057617z"></path></g></g></g></g></g></svg>