<svg width="512" height="512" viewBox="0 0 512 512" fill="none" xmlns="http://www.w3.org/2000/svg">
<g clip-path="url(#clip0_167_2)">
<rect width="512" height="512" fill="#1E2833"/>
<mask id="mask0_167_2" style="mask-type:luminance" maskUnits="userSpaceOnUse" x="0" y="0" width="512" height="512">
<path d="M512 0H0V512H512V0Z" fill="white"/>
</mask>
<g mask="url(#mask0_167_2)">
<mask id="mask1_167_2" style="mask-type:luminance" maskUnits="userSpaceOnUse" x="0" y="0" width="512" height="512">
<path d="M0 0H512V512H0V0Z" fill="white"/>
</mask>
<g mask="url(#mask1_167_2)">
<path d="M323.03 38.3652H188.958C105.811 38.3652 38.3652 105.811 38.3652 188.958V323.03C38.3652 406.177 105.811 473.623 188.958 473.623H323.03C406.177 473.623 473.623 406.177 473.623 323.03V188.958C473.623 105.811 406.177 38.3652 323.03 38.3652Z" fill="#1E2833"/>
<path d="M248.143 223.909L144.244 177.079C136.667 173.734 139.192 162.402 147.452 162.402H364.672C372.932 162.402 375.389 173.666 367.812 177.079L263.981 223.909C258.997 226.162 253.195 226.162 248.212 223.909H248.143ZM387.882 205.273C392.046 198.788 385.219 191.005 378.188 194.146L278.043 239.883C271.217 243.023 266.848 249.918 266.848 257.359V367.334C266.848 374.979 276.815 377.915 280.979 371.498L387.813 205.273H387.882ZM133.799 194.146C126.836 191.005 119.942 198.788 124.106 205.273L231.009 371.566C235.173 378.051 245.14 375.048 245.14 367.402V257.359C245.14 249.85 240.771 243.023 233.944 239.883L133.731 194.214L133.799 194.146Z" fill="white"/>
</g>
</g>
</g>
<defs>
<clipPath id="clip0_167_2">
<rect width="512" height="512" fill="white"/>
</clipPath>
</defs>
</svg>
